<?xml version="1.0" standalone="no"?><!DOCTYPE svg PUBLIC "-//W3C//DTD SVG 1.1//EN" "http://www.w3.org/Graphics/SVG/1.1/DTD/svg11.dtd"><svg t="1590389150905" class="icon" viewBox="0 0 1024 1024" version="1.1" xmlns="http://www.w3.org/2000/svg" p-id="854" xmlns:xlink="http://www.w3.org/1999/xlink" width="200" height="200"><defs><style type="text/css"></style></defs><path d="M512 924.66C284.46 924.66 99.34 739.54 99.34 512S284.46 99.34 512 99.34 924.66 284.46 924.66 512 739.54 924.66 512 924.66z m0-788.36c-207.16 0-375.7 168.54-375.7 375.7S304.84 887.7 512 887.7 887.7 719.16 887.7 512 719.16 136.3 512 136.3z"  p-id="855"></path><path d="M513.62 768.07a18.48 18.48 0 0 1-18.48-18.48V473.34a18.48 18.48 0 0 1 37 0v276.25a18.48 18.48 0 0 1-18.52 18.48z" p-id="856"></path><path d="M703.42 601.28H323.81a18.48 18.48 0 0 1 0-37h379.61a18.48 18.48 0 1 1 0 37zM703.42 485.91H323.81a18.48 18.48 0 1 1 0-37h379.61a18.48 18.48 0 1 1 0 37z" p-id="857"></path><path d="M506 478.43a18.42 18.42 0 0 1-13.67-6l-127.46-140a18.48 18.48 0 0 1 27.33-24.88l127.46 140A18.48 18.48 0 0 1 506 478.43z"  p-id="858"></path><path d="M521.24 478.43a18.48 18.48 0 0 1-13.67-30.92l127.43-140a18.48 18.48 0 1 1 27.33 24.88l-127.46 140a18.42 18.42 0 0 1-13.63 6.04z" p-id="859"></path></svg>