<?xml version="1.0" standalone="no"?><!DOCTYPE svg PUBLIC "-//W3C//DTD SVG 1.1//EN" "http://www.w3.org/Graphics/SVG/1.1/DTD/svg11.dtd"><svg t="1590389160444" class="icon" viewBox="0 0 1024 1024" version="1.1" xmlns="http://www.w3.org/2000/svg" p-id="1103" xmlns:xlink="http://www.w3.org/1999/xlink" width="200" height="200"><defs><style type="text/css"></style></defs><path d="M717.60415162 859.61428833a23.98244136 23.98244136 0 0 1-11.72863917-3.06345072L537.47325789 762.19655995a44.81390585 44.81390585 0 0 0-44.37627032 0L337.0360627 849.72371946a43.76357977 43.76357977 0 0 1-44.37626965 1e-8A43.76357977 43.76357977 0 0 1 270.515422 810.94918755v-554.04691817A92.60373489 92.60373489 0 0 1 363.03162938 164.38606201h297.5923417a92.60373489 92.60373489 0 0 1 92.86631608 92.51620737v441.83709991a23.98244136 23.98244136 0 0 1-47.9648834 0V256.90226938a44.6388515 44.6388515 0 0 0-44.55132397-44.55132398h-297.59234171a44.6388515 44.6388515 0 0 0-44.55132467 44.55132398V805.08486797l150.63424149-85.16392619a92.77878856 92.77878856 0 0 1 91.9035175 0.4376362L729.33279077 814.71285566a23.98244136 23.98244136 0 0 1-11.72863915 44.90143267z"  p-id="1104"></path><path d="M616.68533698 363.77293042H404.16939396a23.98244136 23.98244136 0 1 1 0-47.9648827h212.51594302a23.98244136 23.98244136 0 1 1 0 47.9648827zM538.96121949 486.13589941h-134.79182554a23.98244136 23.98244136 0 0 1 1e-8-47.96488338h134.79182553a23.98244136 23.98244136 0 0 1 0 47.96488338z"  p-id="1105"></path></svg>